<?xml version="1.0" encoding="UTF-8"?>
<svg width="181px" height="159px" viewBox="0 0 181 159" version="1.1" xmlns="http://www.w3.org/2000/svg" xmlns:xlink="http://www.w3.org/1999/xlink">
    <!-- Generator: sketchtool 59 (101010) - https://sketch.com -->
    <title>387C511F-B174-46B7-B8EC-C840249A8564</title>
    <desc>Created with sketchtool.</desc>
    <defs>
        <path d="M4.279,0.4 C2.351,0.4 0.79,1.961 0.79,3.889 L0.79,3.889 L0.79,30.064 C0.79,31.992 2.351,33.553 4.279,33.553 L4.279,33.553 L14.749,33.553 C16.677,33.553 18.239,31.992 18.239,30.064 L18.239,30.064 L18.239,3.889 C18.239,1.961 16.677,0.4 14.749,0.4 L14.749,0.4 L4.279,0.4 Z" id="path-1"></path>
        <path d="M0.897,2.701 C0.897,4.147 2.069,5.318 3.514,5.318 L3.514,5.318 C4.961,5.318 6.133,4.147 6.133,2.701 L6.133,2.701 C6.133,1.255 4.961,0.084 3.514,0.084 L3.514,0.084 C2.069,0.084 0.897,1.255 0.897,2.701 L0.897,2.701 Z" id="path-3"></path>
        <path d="M12.454,15.93 L0.239,30.987 L0.239,53.464 L7.219,56.064 L39.5,56.064 C41.909,56.064 43.862,54.109 43.862,51.701 L43.862,51.701 C43.862,49.291 41.909,47.338 39.5,47.338 L39.5,47.338 L41.244,47.338 C43.653,47.338 45.606,45.386 45.606,42.976 L45.606,42.976 C45.606,40.567 43.653,38.615 41.244,38.615 L41.244,38.615 L42.99,38.615 C45.398,38.615 47.351,36.661 47.351,34.251 L47.351,34.251 C47.351,31.843 45.398,29.889 42.99,29.889 L42.99,29.889 C45.398,29.889 47.351,27.936 47.351,25.527 L47.351,25.527 C47.351,23.118 45.398,21.163 42.99,21.163 L42.99,21.163 L24.668,21.163 L24.668,10.695 C24.668,0.225 12.454,0.225 12.454,0.225 L12.454,0.225 L12.454,15.93 Z" id="path-5"></path>
        <path d="M0.938,0.884 L7.871,0.884 L0.938,0.884 Z" id="path-7"></path>
        <path d="M0.938,0.561 L7.871,0.561 L0.938,0.561 Z" id="path-9"></path>
        <path d="M0.034,1.318 L5.341,1.318 L0.034,1.318 Z" id="path-11"></path>
        <path d="M0.602,8.162 L0.602,0.403 L0.602,8.162 Z" id="path-13"></path>
        <path d="M0.723,1.282 L8.48,1.282 L0.723,1.282 Z" id="path-15"></path>
        <path d="M0.24,1.282 L7.998,1.282 L0.24,1.282 Z" id="path-17"></path>
    </defs>
    <g id="Diseño-Desktop" stroke="none" stroke-width="1" fill="none" fill-rule="evenodd">
        <g id="MLA-|-Por-qué-es-importante-la-reputación-del-vendedor" transform="translate(-388.000000, -1062.000000)">
            <g id="Content" transform="translate(328.000000, 1061.000000)">
                <g id="Group-64" transform="translate(61.000000, 1.000000)">
                    <g id="Group-63">
                        <polygon id="Fill-1" fill="#CF585A" points="22.799 154.522 48.033 154.522 48.033 134.042 22.799 134.042"></polygon>
                        <polygon id="Fill-2" fill="#E2B057" points="48.002 154.522 73.236 154.522 73.236 134.042 48.002 134.042"></polygon>
                        <polygon id="Fill-3" fill="#F4EC41" points="73.205 154.522 98.439 154.522 98.439 134.042 73.205 134.042"></polygon>
                        <polygon id="Fill-4" fill="#C2FF1B" points="98.408 154.522 123.642 154.522 123.642 134.042 98.408 134.042"></polygon>
                        <g id="Group-18" transform="translate(0.000000, 0.758000)">
                            <polygon id="Fill-5" fill-opacity="0.1" fill="#363636" points="22.799 133.284 156.691 133.284 156.691 153.764 22.799 153.764"></polygon>
                            <path d="M172.4145,153.7645 L6.0755,153.7645 C2.7335,153.7645 0.0245,151.0545 0.0245,147.7125 L0.0245,139.1635 C0.0245,135.8215 2.7335,133.1125 6.0755,133.1125 L172.4145,133.1125 C175.7565,133.1125 178.4655,135.8215 178.4655,139.1635 L178.4655,147.7125 C178.4655,151.0545 175.7565,153.7645 172.4145,153.7645 Z" id="Stroke-7" stroke="#303030" stroke-width="2" stroke-linecap="round" stroke-linejoin="round"></path>
                            <polygon id="Stroke-9" stroke="#303030" stroke-width="2" stroke-linecap="round" stroke-linejoin="round" points="22.799 153.764 48.033 153.764 48.033 133.284 22.799 133.284"></polygon>
                            <polygon id="Stroke-11" stroke="#303030" stroke-width="2" stroke-linecap="round" stroke-linejoin="round" points="48.034 153.764 73.268 153.764 73.268 133.284 48.034 133.284"></polygon>
                            <polygon id="Stroke-12" stroke="#303030" stroke-width="2" stroke-linecap="round" stroke-linejoin="round" points="73.268 153.764 98.502 153.764 98.502 133.284 73.268 133.284"></polygon>
                            <polygon id="Stroke-13" stroke="#303030" stroke-width="2" stroke-linecap="round" stroke-linejoin="round" points="98.502 153.764 125.018 153.764 125.018 133.284 98.502 133.284"></polygon>
                            <path d="M150.7388,156.5453 L127.4638,156.5453 C124.1768,156.5453 121.5118,153.8793 121.5118,150.5923 L121.5118,136.3783 C121.5118,133.0893 124.1768,130.4243 127.4638,130.4243 L150.7388,130.4243 C154.0268,130.4243 156.6918,133.0893 156.6918,136.3783 L156.6918,150.5923 C156.6918,153.8793 154.0268,156.5453 150.7388,156.5453" id="Fill-14" fill="#76B73C"></path>
                            <path d="M150.7388,156.5453 L127.4638,156.5453 C124.1768,156.5453 121.5118,153.8793 121.5118,150.5923 L121.5118,136.3783 C121.5118,133.0893 124.1768,130.4243 127.4638,130.4243 L150.7388,130.4243 C154.0268,130.4243 156.6918,133.0893 156.6918,136.3783 L156.6918,150.5923 C156.6918,153.8793 154.0268,156.5453 150.7388,156.5453 Z" id="Stroke-15" stroke="#393939" stroke-width="2"></path>
                            <path d="M34.1059,7.2455 L34.1059,80.5335 C34.1059,84.3875 37.2309,87.5125 41.0849,87.5125 L53.2999,87.5125 L53.2999,108.4525 L74.2389,87.5125 L135.3119,87.5125 C139.1669,87.5125 142.2919,84.3875 142.2919,80.5335 L142.2919,7.2455 C142.2919,3.3905 139.1669,0.2665 135.3119,0.2665 L41.0849,0.2665 C37.2309,0.2665 34.1059,3.3905 34.1059,7.2455" id="Fill-16" fill="#FFE600"></path>
                            <path d="M34.1059,7.2455 L34.1059,80.5335 C34.1059,84.3875 37.2309,87.5125 41.0849,87.5125 L53.2999,87.5125 L53.2999,108.4525 L74.2389,87.5125 L135.3119,87.5125 C139.1669,87.5125 142.2919,84.3875 142.2919,80.5335 L142.2919,7.2455 C142.2919,3.3905 139.1669,0.2665 135.3119,0.2665 L41.0849,0.2665 C37.2309,0.2665 34.1059,3.3905 34.1059,7.2455 Z" id="Stroke-17" stroke="#303030" stroke-width="2" stroke-linecap="round" stroke-linejoin="round"></path>
                        </g>
                        <g id="Group-21" transform="translate(56.000000, 40.758000)">
                            <mask id="mask-2" fill="white">
                                <use xlink:href="#path-1"></use>
                            </mask>
                            <g id="Clip-20"></g>
                            <polygon id="Fill-19" fill="#E4E4E4" mask="url(#mask-2)" points="-4.332 38.674 23.359 38.674 23.359 -4.722 -4.332 -4.722"></polygon>
                        </g>
                        <path d="M70.749,74.3111 L60.279,74.3111 C58.352,74.3111 56.79,72.7491 56.79,70.8221 L56.79,44.6471 C56.79,42.7191 58.352,41.1571 60.279,41.1571 L70.749,41.1571 C72.677,41.1571 74.239,42.7191 74.239,44.6471 L74.239,70.8221 C74.239,72.7491 72.677,74.3111 70.749,74.3111 Z" id="Stroke-22" stroke="#303030" stroke-width="2" stroke-linecap="round" stroke-linejoin="round"></path>
                        <g id="Group-26" transform="translate(62.000000, 63.758000)">
                            <mask id="mask-4" fill="white">
                                <use xlink:href="#path-3"></use>
                            </mask>
                            <g id="Clip-25"></g>
                            <polygon id="Fill-24" fill="#F2F0F0" mask="url(#mask-4)" points="-4.224 10.439 11.253 10.439 11.253 -5.038 -4.224 -5.038"></polygon>
                        </g>
                        <path d="M65.5141,63.8419 C66.9601,63.8419 68.1321,65.0129 68.1321,66.4589 C68.1321,67.9049 66.9601,69.0759 65.5141,69.0759 C64.0691,69.0759 62.8971,67.9049 62.8971,66.4589 C62.8971,65.0129 64.0691,63.8419 65.5141,63.8419 Z" id="Stroke-27" stroke="#303030" stroke-width="2" stroke-linecap="round" stroke-linejoin="round"></path>
                        <g id="Group-31" transform="translate(74.000000, 14.758000)">
                            <mask id="mask-6" fill="white">
                                <use xlink:href="#path-5"></use>
                            </mask>
                            <g id="Clip-30"></g>
                            <polygon id="Fill-29" fill="#FFFFFF" mask="url(#mask-6)" points="-4.883 61.185 52.473 61.185 52.473 -4.896 -4.883 -4.896"></polygon>
                        </g>
                        <path d="M116.9897,44.6471 C119.3987,44.6471 121.3517,42.6941 121.3517,40.2851 C121.3517,37.8761 119.3987,35.9211 116.9897,35.9211 L98.6677,35.9211 L98.6677,25.4531 C98.6677,14.9831 86.4537,14.9831 86.4537,14.9831 L86.4537,30.6881 L74.2387,45.7451 L74.2387,68.2211 L81.2187,70.8221 L113.4997,70.8221 C115.9087,70.8221 117.8627,68.8671 117.8627,66.4591 C117.8627,64.0491 115.9087,62.0961 113.4997,62.0961 L115.2437,62.0961 C117.6537,62.0961 119.6067,60.1441 119.6067,57.7341 C119.6067,55.3251 117.6537,53.3731 115.2437,53.3731 L116.9897,53.3731 C119.3987,53.3731 121.3517,51.4181 121.3517,49.0091 C121.3517,46.6011 119.3987,44.6471 116.9897,44.6471 Z" id="Stroke-32" stroke="#303030" stroke-width="2" stroke-linecap="round" stroke-linejoin="round"></path>
                        <g id="Group-36" transform="translate(109.000000, 43.758000)">
                            <mask id="mask-8" fill="white">
                                <use xlink:href="#path-7"></use>
                            </mask>
                            <g id="Clip-35"></g>
                            <polygon id="Fill-34" fill="#FFFFFF" mask="url(#mask-8)" points="-4.183 6.005 12.992 6.005 12.992 -4.237 -4.183 -4.237"></polygon>
                        </g>
                        <g id="Group-39" transform="translate(109.000000, 52.758000)">
                            <mask id="mask-10" fill="white">
                                <use xlink:href="#path-9"></use>
                            </mask>
                            <g id="Clip-38"></g>
                            <polygon id="Fill-37" fill="#FFFFFF" mask="url(#mask-10)" points="-4.183 5.682 12.992 5.682 12.992 -4.561 -4.183 -4.561"></polygon>
                        </g>
                        <g id="Group-42" transform="translate(110.000000, 60.758000)">
                            <mask id="mask-12" fill="white">
                                <use xlink:href="#path-11"></use>
                            </mask>
                            <g id="Clip-41"></g>
                            <polygon id="Fill-40" fill="#FFFFFF" mask="url(#mask-12)" points="-5.087 6.439 10.462 6.439 10.462 -3.803 -5.087 -3.803"></polygon>
                        </g>
                        <g id="Group-45" transform="translate(167.000000, 139.758000)">
                            <mask id="mask-14" fill="white">
                                <use xlink:href="#path-13"></use>
                            </mask>
                            <g id="Clip-44"></g>
                            <polygon id="Fill-43" fill="#FFFFFF" mask="url(#mask-14)" points="-4.52 13.284 5.722 13.284 5.722 -4.717 -4.52 -4.717"></polygon>
                        </g>
                        <line x1="167.6015" y1="140.1617" x2="167.6015" y2="147.9207" id="Stroke-46" stroke="#303030" stroke-width="2" stroke-linecap="round" stroke-linejoin="round"></line>
                        <g id="Group-50" transform="translate(163.000000, 142.758000)">
                            <mask id="mask-16" fill="white">
                                <use xlink:href="#path-15"></use>
                            </mask>
                            <g id="Clip-49"></g>
                            <polygon id="Fill-48" fill="#FFFFFF" mask="url(#mask-16)" points="-4.399 6.405 13.602 6.405 13.602 -3.838 -4.399 -3.838"></polygon>
                        </g>
                        <line x1="163.7222" y1="144.0406" x2="171.4812" y2="144.0406" id="Stroke-51" stroke="#303030" stroke-width="2" stroke-linecap="round" stroke-linejoin="round"></line>
                        <g id="Group-55" transform="translate(7.000000, 142.758000)">
                            <mask id="mask-18" fill="white">
                                <use xlink:href="#path-17"></use>
                            </mask>
                            <g id="Clip-54"></g>
                            <polygon id="Fill-53" fill="#FFFFFF" mask="url(#mask-18)" points="-4.881 6.405 13.12 6.405 13.12 -3.838 -4.881 -3.838"></polygon>
                        </g>
                        <g id="Group-62" transform="translate(7.000000, 103.758000)">
                            <line x1="0.2397" y1="40.2826" x2="7.9987" y2="40.2826" id="Stroke-56" stroke="#303030" stroke-width="2" stroke-linecap="round" stroke-linejoin="round"></line>
                            <path d="M133.9477,16.2934 L141.2637,3.6224 C141.8337,2.6404 141.4987,1.3824 140.5167,0.8134 C140.2017,0.6294 139.8437,0.5344 139.4787,0.535386978 L124.8467,0.535386978 C123.7117,0.5314 122.7877,1.4494 122.784669,2.5844 C122.7827,2.9484 122.8787,3.3074 123.0617,3.6224 L130.3777,16.2934 C130.9487,17.2794 132.2117,17.6154 133.1977,17.0444 C133.5087,16.8634 133.7677,16.6054 133.9477,16.2934" id="Fill-58" fill="#76B73C"></path>
                            <path d="M133.9477,16.2934 L141.2637,3.6224 C141.8337,2.6404 141.4987,1.3824 140.5167,0.8134 C140.2017,0.6294 139.8437,0.5344 139.4787,0.535386978 L124.8467,0.535386978 C123.7117,0.5314 122.7877,1.4494 122.784669,2.5844 C122.7827,2.9484 122.8787,3.3074 123.0617,3.6224 L130.3777,16.2934 C130.9487,17.2794 132.2117,17.6154 133.1977,17.0444 C133.5087,16.8634 133.7677,16.6054 133.9477,16.2934 Z" id="Stroke-60" stroke="#393939" stroke-width="2" stroke-linecap="round"></path>
                        </g>
                    </g>
                </g>
            </g>
        </g>
    </g>
</svg>